<?xml version="1.0" encoding="utf-8"?>
<!-- Generator: Adobe Illustrator 19.2.1, SVG Export Plug-In . SVG Version: 6.00 Build 0)  -->
<svg version="1.1" id="layer" xmlns="http://www.w3.org/2000/svg" xmlns:xlink="http://www.w3.org/1999/xlink" x="0px" y="0px"
	 viewBox="0 0 652 652" style="enable-background:new 0 0 652 652;" xml:space="preserve">
<style type="text/css">
	.st0{fill:#002856;}
	.st1{fill:#2C88B5;}
	.st2{fill:none;stroke:#002856;stroke-width:1.3273;}
</style>
<polygon class="st0" points="245.4,375.9 234.3,420.1 222.3,420.1 214.6,392.4 206.2,420.1 194.5,420.1 183.6,375.9 193.9,375.9 
	201.2,409.6 212,375.9 219.3,375.9 228.8,409.6 236.7,375.9 "/>
<g>
	<path class="st0" d="M282.3,421.2c-18.2,0-25.8-12.1-25.8-23.2c0-13.5,10.2-23.2,25.8-23.2c14.3,0,25.8,8.4,25.8,23.2
		C308.1,410.8,298.9,421.2,282.3,421.2 M282.3,382.3c-8.8,0-15.1,6.5-15.1,15.7c0,9.8,6.9,15.7,15.1,15.7c8.7,0,15.2-6.2,15.2-15.7
		C297.5,390.4,292.7,382.3,282.3,382.3"/>
	<path class="st0" d="M355.1,420.1h11.6l-11.8-17.7c1.9-0.6,10.4-3.1,10.4-12.4c0-7.1-5.7-14.1-18.9-14.1h-20.8v44.2h10V383h9.7
		c6.9,0,9.9,3.3,9.9,6.9c0,4-3.6,6.9-9.9,6.9h-5.1L355.1,420.1z"/>
	<path class="st0" d="M27.1,406.8c1.2,1.5,4.8,6.7,14.3,6.7c7,0,9.7-2.6,9.7-5.6c0-3-3.3-4.5-8.3-5.5c-1-0.2-4-0.8-4.9-1
		C31.7,400.3,22,398,22,387.8c0-8.3,7.4-13.2,18.6-13.2c14.2,0,19.5,8,20,8.6l-6.9,5.2c-0.9-1.2-4.4-6.2-13.2-6.2
		c-4.6,0-8.3,1.5-8.3,4.6c0,3.9,4.9,4.7,8.4,5.4c1.4,0.3,3.9,0.8,5.7,1.1c8,1.5,15.2,5.7,15.2,13.8c0,9-8.7,13.9-20.1,13.9
		c-15,0-20.5-7.4-21.5-8.6L27.1,406.8z"/>
	<path class="st0" d="M444.7,406.8c1.1,1.5,4.8,6.7,14.3,6.7c7,0,9.7-2.6,9.7-5.6c0-3-3.3-4.5-8.3-5.5c-1-0.2-4-0.8-4.9-1
		c-6.2-1.2-15.9-3.4-15.9-13.7c0-8.3,7.4-13.2,18.6-13.2c14.1,0,19.5,8,20,8.6l-6.9,5.2c-0.9-1.2-4.4-6.2-13.2-6.2
		c-4.6,0-8.3,1.5-8.3,4.6c0,3.9,4.9,4.7,8.4,5.4c1.4,0.3,3.9,0.8,5.7,1.1c8,1.5,15.2,5.7,15.2,13.8c0,9-8.7,13.9-20.1,13.9
		c-15,0-20.5-7.4-21.5-8.6L444.7,406.8z"/>
	<polygon class="st0" points="409.4,396.5 426.7,375.9 415.4,375.9 397.8,396.8 416.6,420.1 428.4,420.1 	"/>
	<rect x="383.9" y="375.9" class="st0" width="10" height="44.2"/>
	<polygon class="st0" points="103.5,396.5 120.9,375.9 109.5,375.9 92,396.8 110.8,420.1 122.6,420.1 	"/>
	<rect x="78" y="375.9" class="st0" width="10" height="44.2"/>
	<polygon class="st0" points="156.1,402.6 156.1,420.1 146.2,420.1 146.2,402.6 128.3,375.9 139.9,375.9 151.7,394.4 163.7,375.9 
		173.8,375.9 	"/>
	<path class="st1" d="M618.2,230.5c0,0-51.2,25.4-94.6,48h-22.1c-7.6-5.5-15.6-11.3-22.8-16.4c-24.2-17-57.9-39.1-57.9-39.1
		c-1.3-0.8-1.5-0.5-0.3,0.4c0,0,32.2,24.2,56.4,41.2c7,5,14.9,10.4,22.5,15.5l-3.4,12.9c-5.1,2.7-10.2,5.5-15.5,8.4h-11.7
		c-20.3-13.9-40.6-27.1-40.6-27.1c-1.5-1-1.7-0.7-0.3,0.4c0,0,17.9,13.5,37,27.3l-2.5,9.3c-36.3,20-70.5,39.4-70.5,39.4
		c-1.7,0.9-1.5,1.3,0.2,0.4c0,0,36.7-18.2,74.3-37.5H481c1.1,0.8,2.3,1.6,3.4,2.4c5.4,3.8,11.4,7.9,17.3,11.9l-1.5,5.6
		c-5.2,2.8-10.4,5.7-15.1,8.4h-9.2l-1.6,6.2c-5.6,3.2-9.1,5.3-9.1,5.3c-2.1,1.2-1.8,1.6,0.3,0.6c0,0,4.4-2.1,11-5.3h8.6l1.3-4.9
		c5.1-2.5,10.7-5.3,16.1-8.2h10.7c15.9,10.7,29.3,19.5,29.3,19.5c1.7,1.1,1.9,0.8,0.3-0.4c0,0-12.3-9.3-27.5-20.4l1.7-6.3
		c18.2-9.9,37.8-21.4,37.8-21.4c2.2-1.3,1.9-1.7-0.3-0.6c0,0-21.7,10.4-40.5,20.2H504c-6-4.4-12.1-8.7-17.8-12.7
		c-1.3-0.9-2.7-1.9-4-2.8l1.6-5.9c5.6-2.9,11.1-5.8,16.4-8.6h23.1c7,4.7,11.6,7.7,11.6,7.7c1.2,0.8,1.5,0.5,0.3-0.4
		c0,0-4.5-3.4-11.3-8.4l3.6-13.5c42.6-23.2,91-50.6,91-50.6C620.6,229.6,620.4,229.3,618.2,230.5"/>
	<path class="st0" d="M486.1,385.3v-6.7h2.9c0.6,0,1,0.1,1.4,0.2c0.3,0.1,0.6,0.3,0.7,0.6c0.2,0.3,0.3,0.6,0.3,1
		c0,0.5-0.2,0.9-0.5,1.2c-0.3,0.3-0.8,0.5-1.4,0.6c0.2,0.1,0.4,0.2,0.5,0.3c0.3,0.2,0.5,0.5,0.7,0.9l1.2,1.8h-1.1l-0.9-1.4
		c-0.3-0.4-0.5-0.7-0.6-0.9c-0.2-0.2-0.3-0.4-0.4-0.4c-0.1-0.1-0.3-0.1-0.4-0.2c-0.1,0-0.3,0-0.5,0h-1v3H486.1z M487,381.5h1.9
		c0.4,0,0.7,0,0.9-0.1c0.2-0.1,0.4-0.2,0.5-0.4c0.1-0.2,0.2-0.4,0.2-0.6c0-0.3-0.1-0.6-0.3-0.8c-0.2-0.2-0.6-0.3-1.1-0.3H487V381.5z
		"/>
	<circle class="st2" cx="488.6" cy="382" r="6"/>
</g>
</svg>
